<svg width="151" height="29" viewBox="0 0 151 29" fill="none" xmlns="http://www.w3.org/2000/svg">
<g clip-path="url(#clip0_8436_9970)">
<path d="M25.3933 15.5648C25.3933 11.205 28.4107 7.47314 32.651 7.47314C36.6523 7.47314 39.5197 10.6077 39.5197 15.6843C39.5197 15.9841 39.5197 16.3121 39.4893 16.5792H28.5887C28.7691 18.7298 30.648 20.3111 33.3374 20.3111C35.249 20.3111 37.1302 19.5356 38.6529 18.28V21.4754C36.9498 22.7896 35.0405 23.387 33.1874 23.387C28.4997 23.387 25.3933 19.9245 25.3933 15.5624V15.5648ZM36.2634 13.9226C35.994 11.8024 34.5017 10.3101 32.501 10.3101C30.5004 10.3101 28.9472 11.8024 28.6496 13.9226H36.2657H36.2634Z" fill="#2CD5C7"/>
<path d="M42.1765 2.06616H45.8194V5.23113H42.1765V2.06616ZM42.2655 7.82918H45.7304V23.0285H42.2655V7.82918Z" fill="#2CD5C7"/>
<path d="M55.825 2.06616H59.4678V5.23113H55.825V2.06616ZM55.914 7.82918H59.3788V23.0285H55.914V7.82918Z" fill="#2CD5C7"/>
<path d="M49.1975 1.08008H52.6623V23.0287H49.1975V1.08008Z" fill="#2CD5C7"/>
<path d="M62.9656 27.3882V24.0733C64.4579 25.1791 66.1305 25.8959 68.3397 25.8959C70.8792 25.8959 73.3273 24.4341 73.3273 21.3863V20.161C72.1629 21.5057 70.5512 22.1922 68.7286 22.1922C64.7577 22.1922 61.6208 18.9663 61.6208 14.8455C61.6208 10.9637 64.6359 7.4707 68.5786 7.4707C70.4903 7.4707 72.1911 8.36561 73.3858 9.82979V7.82913H76.6398V21.2082C76.6398 25.8374 73.2664 28.9719 68.5482 28.9719C66.1586 28.9719 64.2775 28.3136 62.9656 27.3882ZM69.2369 19.1771C71.5351 19.1771 73.4163 17.5349 73.4163 14.8174C73.4163 12.2498 71.5047 10.4272 69.2369 10.4272C66.9692 10.4272 65.1161 12.3974 65.1161 14.8174C65.1161 17.3545 66.8193 19.1771 69.2369 19.1771Z" fill="#2CD5C7"/>
<path d="M87.2053 10.5188C85.2047 10.5188 83.7124 12.2805 83.7124 14.8785V23.0311H80.2476V1.08008H83.7124V7.82936C83.7124 8.72427 83.6819 9.65197 83.6234 10.5469C84.5792 8.63525 86.3409 7.47093 88.6414 7.47093C91.9563 7.47093 94.1959 9.88859 94.1959 13.9508V23.0287H90.703V14.8785C90.703 12.1305 89.3887 10.5188 87.21 10.5188H87.2053Z" fill="#2CD5C7"/>
<path d="M98.2605 2.1272H111.937V5.38119H101.753V10.7272H110.442V14.0117H101.753V19.7442H112.385V23.0287H98.2605V2.1272Z" fill="#2CD5C7"/>
<path d="M129.032 14.1007H119.298V23.0287H115.802V2.1272H119.298V10.7553H129.032V2.1272H132.555V23.0287H129.032V14.1007Z" fill="#2CD5C7"/>
<path d="M136.167 21.6862V17.9543C137.899 19.1795 140.049 20.0744 142.439 20.0744C144.828 20.0744 146.86 19.0881 146.86 17.3873C146.86 13.5359 136.676 14.7003 136.676 7.95097C136.676 4.36666 139.571 1.79907 143.842 1.79907C145.784 1.79907 147.993 2.30744 149.575 3.17189V6.84522C147.963 5.80038 145.932 5.11398 144.081 5.11398C141.9 5.11398 140.199 5.98077 140.199 7.59254C140.199 11.5048 150.502 10.1601 150.502 17.1179C150.502 20.8498 147.515 23.3893 142.619 23.3893C139.813 23.3893 137.632 22.5834 136.17 21.6862H136.167Z" fill="#2CD5C7"/>
<path d="M15.2566 21.2669C15.5986 21.4122 15.943 21.5457 16.2897 21.6675C15.1746 22.3727 13.9798 22.9607 12.7195 23.4152H12.6211C7.46013 21.5551 3.37448 17.4413 1.54484 12.2616C1.32931 11.6478 1.14424 11.02 0.991965 10.3781C0.668674 9.01701 0.5 7.59734 0.5 6.14019C0.5 4.68303 0.668674 3.26571 0.989622 1.90695C1.14424 1.25802 1.33165 0.620812 1.55187 0H5.32594C4.81992 1.6516 4.56691 3.36644 4.56691 5.12346C4.56691 7.48723 5.03076 9.78307 5.94207 11.943C6.82292 14.0304 8.08563 15.9022 9.69271 17.5116C11.2998 19.121 13.1716 20.3837 15.2566 21.2669Z" fill="#2CD5C7"/>
<path d="M24.8406 6.14009C24.8406 7.51056 24.6906 8.84589 24.4048 10.132C24.2385 10.8887 24.023 11.629 23.7653 12.3459C22.8376 14.9299 21.3476 17.2468 19.4407 19.1467C12.8343 17.9074 7.8186 12.0905 7.8186 5.12102C7.8186 3.31715 8.15595 1.58824 8.76739 -0.00244141H23.7887C24.037 0.69568 24.2432 1.41254 24.4048 2.14815C24.6906 3.43194 24.8406 4.76962 24.8406 6.14009Z" fill="#CBFF10"/>
</g>
<defs>
<clipPath id="clip0_8436_9970">
<rect width="150" height="28.972" fill="white" transform="translate(0.5)"/>
</clipPath>
</defs>
</svg>
