<?xml version="1.0" encoding="UTF-8"?><svg id="Layer_1" xmlns="http://www.w3.org/2000/svg" viewBox="0 0 747.57 379.91"><defs><style>.cls-1{fill:#04202f;}.cls-1,.cls-2{stroke-width:0px;}.cls-2{fill:#cbff10;}</style></defs><path class="cls-1" d="M154.3,198.54c0-18.61,12.88-34.54,30.98-34.54,17.08,0,29.32,13.38,29.32,35.05,0,1.28,0,2.68-.13,3.82h-46.53c.77,9.18,8.79,15.93,20.27,15.93,8.16,0,16.19-3.31,22.69-8.67v13.64c-7.27,5.61-15.42,8.16-23.33,8.16-20.01,0-33.27-14.78-33.27-33.4ZM200.7,191.53c-1.15-9.05-7.52-15.42-16.06-15.42s-15.17,6.37-16.44,15.42h32.51Z"/><path class="cls-1" d="M225.95,140.92h15.55v13.51h-15.55v-13.51ZM226.33,165.52h14.79v64.88h-14.79v-64.88Z"/><path class="cls-1" d="M284.21,140.92h15.55v13.51h-15.55v-13.51ZM284.59,165.52h14.79v64.88h-14.79v-64.88Z"/><path class="cls-1" d="M255.92,136.71h14.79v93.69h-14.79v-93.69Z"/><path class="cls-1" d="M314.69,249.01v-14.15c6.37,4.72,13.51,7.78,22.94,7.78,10.84,0,21.29-6.24,21.29-19.25v-5.23c-4.97,5.74-11.85,8.67-19.63,8.67-16.95,0-30.34-13.77-30.34-31.36,0-16.57,12.87-31.48,29.7-31.48,8.16,0,15.42,3.82,20.52,10.07v-8.54h13.89v57.11c0,19.76-14.4,33.14-34.54,33.14-10.2,0-18.23-2.81-23.83-6.76ZM341.45,213.96c9.81,0,17.84-7.01,17.84-18.61,0-10.96-8.16-18.74-17.84-18.74s-17.59,8.41-17.59,18.74c0,10.83,7.27,18.61,17.59,18.61Z"/><path class="cls-1" d="M418.15,177c-8.54,0-14.91,7.52-14.91,18.61v34.8h-14.79v-93.69h14.79v28.81c0,3.82-.13,7.78-.38,11.6,4.08-8.16,11.6-13.13,21.42-13.13,14.15,0,23.71,10.32,23.71,27.66v38.75h-14.91v-34.8c0-11.73-5.61-18.61-14.91-18.61Z"/><path class="cls-1" d="M465.34,141.18h58.38v13.89h-43.47v22.82h37.09v14.02h-37.09v24.47h45.38v14.02h-60.29v-89.23Z"/><path class="cls-1" d="M596.7,192.29h-41.55v38.11h-14.92v-89.23h14.92v36.84h41.55v-36.84h15.04v89.23h-15.04v-38.11Z"/><path class="cls-1" d="M627.16,224.67v-15.93c7.39,5.23,16.57,9.05,26.77,9.05s18.87-4.21,18.87-11.47c0-16.44-43.47-11.47-43.47-40.28,0-15.3,12.36-26.26,30.59-26.26,8.29,0,17.72,2.17,24.47,5.86v15.68c-6.88-4.46-15.55-7.39-23.45-7.39-9.31,0-16.57,3.7-16.57,10.58,0,16.7,43.98,10.96,43.98,40.66,0,15.93-12.75,26.77-33.65,26.77-11.98,0-21.29-3.44-27.53-7.27Z"/><path class="cls-1" d="M111.04,222.88c1.46.62,2.93,1.19,4.41,1.71-4.76,3.01-9.86,5.52-15.24,7.46h-.42c-22.03-7.94-39.47-25.5-47.28-47.61-.92-2.62-1.71-5.3-2.36-8.04-1.37-5.8-2.09-11.85-2.09-18.08s.72-12.27,2.09-18.08c.65-2.77,1.45-5.49,2.39-8.14h16.11c-2.16,7.05-3.24,14.37-3.24,21.87,0,10.09,1.98,19.89,5.87,29.11,3.76,8.91,9.15,16.9,16.01,23.77,6.86,6.87,14.85,12.26,23.75,16.03Z"/><path class="cls-2" d="M151.95,158.31c0,5.85-.64,11.55-1.86,17.04-.71,3.23-1.63,6.39-2.73,9.45-3.96,11.03-10.32,20.92-18.46,29.03-28.2-5.29-49.61-30.12-49.61-59.87,0-7.7,1.44-15.08,4.05-21.87h64.12c1.06,2.98,1.94,6.04,2.63,9.18,1.22,5.48,1.86,11.19,1.86,17.04Z"/></svg>