<?xml version="1.0" encoding="UTF-8"?><svg id="Layer_1" xmlns="http://www.w3.org/2000/svg" viewBox="0 0 498.38 379.91"><defs><style>.cls-1{fill:#31cfc4;}.cls-1,.cls-2{stroke-width:0px;}.cls-2{fill:#cbff10;}</style></defs><path class="cls-1" d="M289.98,313.27c4.44,1.88,8.93,3.62,13.45,5.2-14.5,9.18-30.05,16.83-46.44,22.74h-1.29c-67.13-24.2-120.28-77.7-144.08-145.09-2.82-7.98-5.22-16.16-7.19-24.51-4.18-17.68-6.38-36.12-6.38-55.08s2.2-37.4,6.38-55.08c1.99-8.45,4.43-16.72,7.3-24.8h49.1c-6.57,21.48-9.89,43.8-9.89,66.63,0,30.76,6.02,60.6,17.9,88.71,11.47,27.14,27.88,51.51,48.78,72.43,20.9,20.93,45.25,37.36,72.36,48.84Z"/><path class="cls-2" d="M414.64,116.54c0,17.83-1.95,35.2-5.66,51.92-2.18,9.85-4.96,19.46-8.32,28.81-12.06,33.62-31.45,63.76-56.24,88.46-85.94-16.11-151.18-91.78-151.18-182.44,0-23.47,4.37-45.94,12.35-66.63h195.37c3.23,9.08,5.91,18.41,8.02,27.96,3.71,16.71,5.66,34.09,5.66,51.92Z"/></svg>